<svg width="512" height="512" viewBox="0 0 512 512" fill="none" xmlns="http://www.w3.org/2000/svg">
<g clip-path="url(#clip0_6_2)">
<path d="M256 512C397.385 512 512 397.385 512 256C512 114.615 397.385 0 256 0C114.615 0 0 114.615 0 256C0 397.385 114.615 512 256 512Z" fill="white"/>
<path d="M256.365 87.04C159.715 87.04 81.365 165.39 81.365 262.04C81.365 358.69 159.715 437.04 256.365 437.04C353.015 437.04 431.365 358.69 431.365 262.04C431.365 165.39 353.015 87.04 256.365 87.04ZM316.264 353.916H196.469V170.166H314.044V213.922H246.869V240.976H307.221V282.498H246.869V310.008H316.267L316.264 353.916Z" fill="black"/>
</g>
<defs>
<clipPath id="clip0_6_2">
<rect width="512" height="512" fill="white"/>
</clipPath>
</defs>
</svg>
